<mxfile host="app.diagrams.net" modified="2024-03-22T22:59:01.435Z" agent="Mozilla/5.0 (X11; Linux x86_64) AppleWebKit/537.36 (KHTML, like Gecko) Chrome/122.0.0.0 Safari/537.36" etag="d-NDktYVHnJExh8-Apha" version="24.0.8" type="github">
  <diagram name="Page-1" id="TOZ1hOZQSgg3AGNhHM2i">
    <mxGraphModel dx="2854" dy="1313" grid="1" gridSize="10" guides="1" tooltips="1" connect="1" arrows="1" fold="1" page="1" pageScale="1" pageWidth="850" pageHeight="1100" math="0" shadow="0">
      <root>
        <mxCell id="0" />
        <mxCell id="1" parent="0" />
        <mxCell id="0AffyZnKiyHTDzDrtZp8-10" style="edgeStyle=orthogonalEdgeStyle;rounded=0;orthogonalLoop=1;jettySize=auto;html=1;exitX=0.5;exitY=1;exitDx=0;exitDy=0;entryX=0.5;entryY=0;entryDx=0;entryDy=0;" edge="1" parent="1" source="0AffyZnKiyHTDzDrtZp8-1" target="0AffyZnKiyHTDzDrtZp8-9">
          <mxGeometry relative="1" as="geometry" />
        </mxCell>
        <mxCell id="0AffyZnKiyHTDzDrtZp8-11" style="edgeStyle=orthogonalEdgeStyle;rounded=0;orthogonalLoop=1;jettySize=auto;html=1;exitX=0.5;exitY=1;exitDx=0;exitDy=0;" edge="1" parent="1" source="0AffyZnKiyHTDzDrtZp8-1" target="0AffyZnKiyHTDzDrtZp8-2">
          <mxGeometry relative="1" as="geometry" />
        </mxCell>
        <mxCell id="0AffyZnKiyHTDzDrtZp8-12" style="edgeStyle=orthogonalEdgeStyle;rounded=0;orthogonalLoop=1;jettySize=auto;html=1;exitX=0.5;exitY=1;exitDx=0;exitDy=0;entryX=0.5;entryY=0;entryDx=0;entryDy=0;" edge="1" parent="1" source="0AffyZnKiyHTDzDrtZp8-1" target="0AffyZnKiyHTDzDrtZp8-3">
          <mxGeometry relative="1" as="geometry" />
        </mxCell>
        <mxCell id="0AffyZnKiyHTDzDrtZp8-13" style="edgeStyle=orthogonalEdgeStyle;rounded=0;orthogonalLoop=1;jettySize=auto;html=1;exitX=0.5;exitY=1;exitDx=0;exitDy=0;entryX=0.5;entryY=0;entryDx=0;entryDy=0;" edge="1" parent="1" source="0AffyZnKiyHTDzDrtZp8-1" target="0AffyZnKiyHTDzDrtZp8-4">
          <mxGeometry relative="1" as="geometry" />
        </mxCell>
        <mxCell id="0AffyZnKiyHTDzDrtZp8-14" style="edgeStyle=orthogonalEdgeStyle;rounded=0;orthogonalLoop=1;jettySize=auto;html=1;exitX=0.5;exitY=1;exitDx=0;exitDy=0;entryX=0.5;entryY=0;entryDx=0;entryDy=0;" edge="1" parent="1" source="0AffyZnKiyHTDzDrtZp8-1" target="0AffyZnKiyHTDzDrtZp8-5">
          <mxGeometry relative="1" as="geometry" />
        </mxCell>
        <mxCell id="0AffyZnKiyHTDzDrtZp8-15" style="edgeStyle=orthogonalEdgeStyle;rounded=0;orthogonalLoop=1;jettySize=auto;html=1;exitX=0.5;exitY=1;exitDx=0;exitDy=0;entryX=0.5;entryY=0;entryDx=0;entryDy=0;" edge="1" parent="1" source="0AffyZnKiyHTDzDrtZp8-1" target="0AffyZnKiyHTDzDrtZp8-6">
          <mxGeometry relative="1" as="geometry" />
        </mxCell>
        <mxCell id="0AffyZnKiyHTDzDrtZp8-16" style="edgeStyle=orthogonalEdgeStyle;rounded=0;orthogonalLoop=1;jettySize=auto;html=1;exitX=0.5;exitY=1;exitDx=0;exitDy=0;entryX=0.5;entryY=0;entryDx=0;entryDy=0;" edge="1" parent="1" source="0AffyZnKiyHTDzDrtZp8-1" target="0AffyZnKiyHTDzDrtZp8-7">
          <mxGeometry relative="1" as="geometry" />
        </mxCell>
        <mxCell id="0AffyZnKiyHTDzDrtZp8-17" style="edgeStyle=orthogonalEdgeStyle;rounded=0;orthogonalLoop=1;jettySize=auto;html=1;exitX=0.5;exitY=1;exitDx=0;exitDy=0;entryX=0.5;entryY=0;entryDx=0;entryDy=0;" edge="1" parent="1" source="0AffyZnKiyHTDzDrtZp8-1" target="0AffyZnKiyHTDzDrtZp8-8">
          <mxGeometry relative="1" as="geometry" />
        </mxCell>
        <mxCell id="0AffyZnKiyHTDzDrtZp8-1" value="Video Games" style="rounded=0;whiteSpace=wrap;html=1;" vertex="1" parent="1">
          <mxGeometry x="340" y="30" width="120" height="60" as="geometry" />
        </mxCell>
        <mxCell id="0AffyZnKiyHTDzDrtZp8-2" value="Action" style="rounded=0;whiteSpace=wrap;html=1;" vertex="1" parent="1">
          <mxGeometry x="-80" y="160" width="120" height="60" as="geometry" />
        </mxCell>
        <mxCell id="0AffyZnKiyHTDzDrtZp8-3" value="Adventure" style="rounded=0;whiteSpace=wrap;html=1;" vertex="1" parent="1">
          <mxGeometry x="140" y="160" width="120" height="60" as="geometry" />
        </mxCell>
        <mxCell id="0AffyZnKiyHTDzDrtZp8-4" value="Puzzle" style="rounded=0;whiteSpace=wrap;html=1;" vertex="1" parent="1">
          <mxGeometry x="340" y="160" width="120" height="60" as="geometry" />
        </mxCell>
        <mxCell id="0AffyZnKiyHTDzDrtZp8-5" value="RPG" style="rounded=0;whiteSpace=wrap;html=1;" vertex="1" parent="1">
          <mxGeometry x="550" y="160" width="120" height="60" as="geometry" />
        </mxCell>
        <mxCell id="0AffyZnKiyHTDzDrtZp8-6" value="Simulation" style="rounded=0;whiteSpace=wrap;html=1;" vertex="1" parent="1">
          <mxGeometry x="740" y="160" width="120" height="60" as="geometry" />
        </mxCell>
        <mxCell id="0AffyZnKiyHTDzDrtZp8-7" value="Strategy" style="rounded=0;whiteSpace=wrap;html=1;" vertex="1" parent="1">
          <mxGeometry x="930" y="160" width="120" height="60" as="geometry" />
        </mxCell>
        <mxCell id="0AffyZnKiyHTDzDrtZp8-8" value="Sports" style="rounded=0;whiteSpace=wrap;html=1;" vertex="1" parent="1">
          <mxGeometry x="1110" y="160" width="120" height="60" as="geometry" />
        </mxCell>
        <mxCell id="0AffyZnKiyHTDzDrtZp8-9" value="Other" style="rounded=0;whiteSpace=wrap;html=1;" vertex="1" parent="1">
          <mxGeometry x="-340" y="160" width="120" height="60" as="geometry" />
        </mxCell>
      </root>
    </mxGraphModel>
  </diagram>
</mxfile>
